<?xml version="1.0" standalone="no"?>
<!DOCTYPE svg PUBLIC "-//W3C//DTD SVG 20010904//EN"
 "http://www.w3.org/TR/2001/REC-SVG-20010904/DTD/svg10.dtd">
<svg version="1.0" xmlns="http://www.w3.org/2000/svg"
 width="1920.000000pt" height="1080.000000pt" viewBox="0 0 1920.000000 1080.000000"
 preserveAspectRatio="xMidYMid meet">

<g transform="translate(0.000000,1080.000000) scale(0.100000,-0.100000)"
fill="#000000" stroke="none">
<path d="M9320 10219 c-405 -23 -902 -124 -1277 -258 -644 -231 -1210 -584
-1696 -1061 -398 -389 -678 -771 -920 -1255 -268 -535 -427 -1110 -477 -1720
-13 -156 -13 -577 0 -730 127 -1514 949 -2842 2244 -3627 578 -351 1216 -564
1928 -645 215 -24 741 -24 956 0 599 68 1097 214 1616 473 1107 554 1956 1541
2339 2719 157 483 229 939 227 1445 -1 273 -6 370 -26 535 -85 704 -307 1341
-672 1930 -198 319 -418 591 -709 875 -811 795 -1858 1255 -3003 1320 -206 11
-316 11 -530 -1z m270 -113 l0 -94 80 -134 79 -133 -16 -249 -16 -250 -53
-110 -53 -111 0 63 c-1 48 -4 62 -16 62 -13 0 -15 -40 -17 -280 l-3 -279 -160
104 c-88 57 -163 112 -167 122 -5 10 -42 143 -83 296 l-74 277 109 396 c61
217 110 397 110 399 0 4 75 8 218 13 l62 2 0 -94z m260 84 c298 -17 552 -54
838 -122 l132 -32 0 -54 c0 -51 -6 -64 -116 -248 l-116 -193 -190 -111 -189
-111 -164 131 -163 130 -131 221 -131 221 0 89 0 89 28 0 c15 0 106 -5 202
-10z m-574 -17 c-3 -10 -53 -190 -111 -400 l-105 -382 81 -304 81 -303 59 -38
c33 -21 59 -41 59 -45 0 -3 -63 -43 -141 -87 l-140 -82 -272 150 c-150 82
-276 153 -281 158 -5 5 14 109 45 242 29 128 52 240 52 248 -1 13 -98 339
-198 667 l-13 42 127 30 c217 52 478 94 706 114 22 2 44 4 48 5 5 1 6 -6 3
-15z m-808 -486 c56 -188 102 -352 102 -364 0 -21 -97 -453 -103 -460 -2 -1
-59 27 -127 65 l-123 67 -311 350 c-171 193 -317 358 -325 368 -12 16 -6 21
75 58 201 93 583 233 704 258 3 0 51 -153 108 -342z m2606 269 c105 -35 261
-94 346 -130 139 -60 434 -206 479 -238 19 -14 21 -6 -79 -370 -10 -35 -30
-49 -363 -261 -379 -241 -976 -582 -1005 -575 -9 3 -103 61 -208 130 l-191
125 -6 204 c-4 112 -7 236 -7 274 l0 71 279 162 c153 90 285 171 294 180 8 9
64 102 126 205 101 171 111 193 111 238 0 38 3 49 16 49 9 0 102 -29 208 -64z
m-3206 -612 l323 -365 -135 -441 c-74 -243 -134 -443 -133 -444 1 -1 90 -29
197 -63 107 -34 196 -64 198 -66 4 -3 -454 -834 -468 -848 -6 -7 -991 410
-1005 425 -2 2 -26 352 -54 778 -28 426 -53 800 -56 830 l-5 55 53 40 c100 75
233 167 347 240 127 80 389 225 405 224 5 0 155 -165 333 -365z m1952 281 c32
-55 50 -72 248 -233 l112 -91 -86 -48 -86 -48 7 -286 7 -286 -198 -244 -199
-244 -6 225 c-4 124 -7 304 -8 401 l-1 175 69 150 69 149 13 222 c7 122 16
220 20 217 4 -2 22 -29 39 -59z m2248 -139 c237 -150 453 -316 656 -501 132
-122 306 -299 306 -311 0 -5 -200 -74 -443 -153 l-442 -144 -237 41 -238 40
-187 154 c-103 84 -196 160 -206 168 -17 14 2 28 270 199 l289 184 54 198 c29
110 55 199 57 199 2 0 57 -33 121 -74z m-5364 -338 c5 -23 107 -1564 106
-1605 0 -16 12 -26 55 -44 30 -12 55 -27 55 -33 1 -18 -113 -1131 -116 -1135
-2 -1 -247 78 -546 178 l-544 181 -190 322 c-104 177 -190 330 -192 339 -2 9
28 84 65 165 229 497 569 976 969 1364 131 128 313 289 326 290 4 0 10 -10 12
-22z m1961 -433 c198 -109 361 -199 362 -199 2 -1 -51 -33 -116 -71 l-119 -70
-62 -230 c-35 -126 -66 -235 -69 -242 -4 -8 -113 23 -351 99 -190 61 -346 111
-348 113 -3 3 246 824 255 838 2 4 23 -4 46 -17 23 -13 204 -113 402 -221z
m2738 -77 c89 -73 183 -149 208 -170 44 -37 53 -40 189 -63 78 -13 144 -26
146 -28 2 -2 14 -71 26 -154 l22 -150 -123 -135 -123 -134 -766 -117 c-422
-65 -773 -118 -781 -117 -11 0 -13 14 -8 67 l5 67 -49 64 c-27 36 -49 68 -48
71 0 3 87 120 192 260 l192 254 317 178 c175 97 339 191 365 207 27 17 54 31
61 31 8 1 87 -58 175 -131z m-1918 -25 l100 -68 3 -297 2 -298 -82 -54 -83
-54 -124 20 -125 20 -26 -32 -26 -32 -148 273 c-82 150 -144 275 -140 276 5 2
126 73 269 157 143 85 265 155 270 155 6 1 56 -29 110 -66z m3672 -80 c153
-183 403 -536 403 -569 0 -6 -140 -44 -310 -86 l-310 -75 -273 41 -272 41
-186 99 -186 98 -21 141 c-11 78 -19 143 -17 145 2 2 41 -1 87 -8 l83 -12 440
145 c242 80 447 146 456 146 9 1 57 -47 106 -106z m-2730 -177 c16 -15 -330
-482 -355 -479 -9 1 -70 -5 -136 -15 l-119 -17 -96 52 -96 51 -3 71 -3 72 211
259 211 259 187 -121 c103 -67 192 -126 199 -132z m-1464 -304 c76 -138 137
-256 137 -260 0 -4 -14 -27 -31 -50 l-30 -41 14 -168 15 -168 -26 -38 c-15
-21 -32 -46 -38 -55 -9 -13 -5 -56 16 -184 15 -91 30 -171 34 -176 3 -5 50
-24 106 -43 55 -19 100 -36 100 -39 -1 -3 -100 -71 -221 -151 l-220 -147 -121
179 c-114 167 -122 183 -119 222 1 23 18 214 37 425 l34 383 75 277 c88 323
83 308 94 296 4 -5 69 -123 144 -262z m3240 -99 l182 -97 277 -42 278 -41 322
78 c285 68 323 76 333 62 71 -97 374 -743 349 -743 -3 0 -357 83 -787 184
l-782 184 -93 -24 -92 -25 -205 147 c-113 81 -204 151 -203 155 4 10 229 259
235 259 2 0 86 -44 186 -97z m-3561 -92 c4 -3 0 -33 -8 -65 -8 -32 -32 -251
-53 -485 l-38 -426 124 -182 c68 -99 123 -184 123 -187 0 -3 -277 -190 -615
-416 l-614 -410 53 88 c29 48 180 295 335 550 l282 463 -95 302 -94 302 155
281 156 281 141 -45 c77 -24 144 -47 148 -51z m1060 12 l90 -48 224 -275 224
-274 0 -151 -1 -150 -93 -63 -93 -64 -7 -144 -7 -144 91 -308 c49 -170 90
-316 90 -324 0 -25 -93 -90 -260 -181 l-155 -86 -111 8 c-90 7 -134 16 -237
50 -119 40 -133 48 -220 118 -50 41 -93 81 -95 89 -2 7 38 153 88 324 l91 310
-7 144 -7 144 -106 38 c-58 20 -111 42 -117 48 -10 10 -54 263 -54 309 0 10
93 143 207 296 195 261 212 281 283 329 41 28 79 51 84 51 5 1 49 -20 98 -46z
m-384 -43 c45 -7 82 -15 82 -18 0 -3 -69 -97 -152 -209 l-153 -204 -13 147
-13 146 58 79 c50 69 61 79 83 75 14 -2 62 -10 108 -16z m790 -58 l59 -77 -11
-120 c-6 -66 -15 -119 -19 -118 -13 4 -298 358 -290 360 10 3 173 31 190 32 7
1 39 -34 71 -77z m1836 -143 c108 -78 193 -145 189 -149 -4 -5 -417 -114 -918
-244 -500 -130 -918 -239 -927 -242 -17 -5 -18 6 -18 144 l0 150 -51 61 -50
60 7 61 c4 33 7 60 8 61 5 3 1517 237 1537 238 19 1 82 -39 223 -140z m1231
-309 c429 -101 782 -184 784 -186 10 -8 94 -281 129 -420 33 -127 82 -356 82
-380 0 -2 -6 -4 -13 -4 -7 0 -231 -60 -498 -134 l-484 -134 -565 23 -565 23
-715 187 -715 187 -255 170 c-140 94 -258 174 -263 178 -4 3 32 34 80 67 l88
61 1055 275 c580 151 1060 274 1065 273 6 -2 361 -86 790 -186z m-5761 -59
c242 -104 443 -188 447 -185 4 2 41 65 81 139 40 74 75 135 78 135 3 0 44
-125 92 -278 l86 -277 -350 -575 -350 -575 -276 -184 c-152 -101 -278 -180
-279 -175 -2 5 -145 270 -317 589 -173 319 -313 581 -312 582 1 2 116 -35 256
-82 140 -47 255 -83 258 -81 3 4 122 1124 122 1155 0 7 6 11 13 8 6 -3 210
-91 451 -196z m-1919 -258 c99 -169 187 -314 195 -324 8 -9 140 -58 293 -109
260 -86 278 -94 273 -114 -2 -11 -44 -241 -91 -511 -48 -269 -92 -497 -99
-505 -68 -81 -940 -1040 -946 -1040 -15 0 -79 307 -109 521 -34 244 -44 433
-38 739 10 546 88 972 275 1493 31 86 58 157 61 157 4 0 87 -138 186 -307z
m3701 -762 c-71 -243 -101 -330 -119 -350 -13 -14 -298 -336 -632 -716 l-608
-690 -436 -233 -436 -233 -265 6 c-146 3 -281 8 -300 11 -28 5 -65 34 -188
152 l-153 147 21 120 c11 66 23 130 25 141 3 12 65 76 138 143 127 115 207
170 1583 1091 l1449 970 8 -117 8 -118 -95 -324z m2344 -415 c1009 -674 1459
-981 1515 -1032 44 -39 106 -96 138 -125 l59 -54 24 -140 25 -140 -153 -147
c-123 -118 -160 -147 -188 -152 -19 -3 -154 -8 -300 -11 l-265 -6 -436 233
-436 233 -608 690 c-334 380 -619 702 -632 716 -18 20 -48 107 -119 350 l-95
324 7 117 c5 83 10 116 18 111 6 -4 657 -439 1446 -967z m-4959 68 c160 -296
302 -560 315 -586 l24 -48 -282 -189 c-201 -134 -314 -217 -388 -285 -58 -53
-108 -96 -112 -96 -10 0 -328 397 -328 410 0 5 66 83 147 172 l148 162 87 491
c48 269 88 496 88 504 0 8 2 12 5 9 3 -2 136 -247 296 -544z m4808 354 l646
-169 574 -23 573 -24 495 138 c318 88 496 133 499 126 5 -16 33 -244 35 -291
2 -40 1 -41 -282 -320 -156 -154 -331 -326 -389 -382 l-105 -102 -319 -90
-320 -89 -1040 695 c-573 383 -1045 700 -1051 706 -6 6 -2 7 14 2 13 -4 315
-84 670 -177z m2840 -595 l1 -182 -312 -501 -311 -500 -149 0 c-110 0 -150 3
-153 13 -2 6 -9 44 -15 82 l-12 70 -143 129 c-79 71 -178 151 -220 179 -42 28
-72 54 -68 58 4 4 143 44 308 90 l299 84 381 373 380 374 7 -43 c3 -24 7 -126
7 -226z m-5004 155 l103 -82 -172 -345 -172 -346 -54 -270 c-29 -148 -58 -275
-64 -281 -6 -6 -89 -34 -184 -63 -95 -29 -179 -54 -186 -57 -9 -3 -70 75 -173
220 l-161 225 477 540 c262 297 478 541 479 541 2 0 50 -37 107 -82z m1653
-637 l630 -714 317 -167 c174 -92 316 -171 316 -175 0 -4 -51 -30 -113 -57
l-113 -50 -374 7 -374 7 -348 274 c-191 151 -350 282 -353 291 -2 10 -19 110
-37 223 l-32 205 -174 365 c-95 200 -171 370 -169 377 3 6 22 21 43 31 21 11
61 38 88 61 28 22 53 39 57 38 3 -1 290 -323 636 -716z m-684 199 l174 -365
42 -260 c29 -180 52 -380 75 -653 l34 -392 -69 -343 c-39 -188 -74 -352 -79
-363 -5 -12 -94 -94 -198 -184 -178 -154 -195 -166 -333 -235 l-146 -73 -175
71 -175 72 -211 170 -211 170 -88 352 -89 353 134 667 134 668 171 345 c94
190 172 347 173 349 1 1 52 -14 114 -34 87 -29 136 -39 226 -46 l115 -9 97 55
c53 29 100 53 104 52 4 -1 86 -167 181 -367z m4026 -154 c-32 -427 -133 -889
-276 -1263 -30 -82 -58 -156 -61 -165 -3 -10 -10 -18 -16 -18 -5 0 -75 41
-154 91 -112 71 -143 96 -143 112 0 12 13 123 29 247 l28 225 299 481 c201
323 300 474 302 461 2 -11 -1 -88 -8 -171z m-8276 -341 c86 -108 159 -202 162
-210 4 -8 -1 -17 -9 -21 -10 -4 -19 -30 -27 -77 -12 -75 -13 -83 -32 -181
l-11 -58 56 -56 55 -55 -141 -102 c-253 -180 -214 -162 -465 -221 -124 -30
-230 -50 -234 -46 -13 13 -103 265 -138 389 -32 110 -32 112 -14 135 43 54
629 698 635 698 4 0 77 -88 163 -195z m2362 -320 c87 -123 163 -225 169 -225
5 0 92 25 193 56 100 31 186 54 189 50 3 -3 -27 -172 -68 -375 l-73 -370 32
-133 c18 -73 32 -142 32 -153 0 -11 -58 -155 -128 -320 l-129 -300 -299 -158
c-164 -87 -358 -189 -431 -227 l-132 -69 -42 129 -43 128 -208 251 c-185 223
-205 251 -185 256 12 2 42 8 67 12 l45 9 62 539 c34 297 62 548 62 557 1 11
70 53 219 132 l217 115 140 160 c77 89 143 161 146 161 3 0 78 -101 165 -225z
m2552 -327 l303 -238 164 0 165 0 77 -69 c350 -309 332 -289 609 -661 l257
-345 129 -400 128 -400 -62 -58 c-35 -31 -66 -56 -70 -55 -4 2 -40 56 -80 120
l-73 117 -297 236 -298 236 -330 100 -330 99 -323 262 c-177 143 -324 262
-326 264 -2 2 8 62 22 134 l26 131 -34 402 c-19 221 -35 406 -35 411 0 10 0
10 378 -286z m2707 -35 l-31 -248 -164 -238 -164 -238 -97 193 -97 193 -101
70 -100 70 95 6 96 7 52 48 c28 27 102 98 164 159 l112 110 -6 58 -7 57 140 0
139 0 -31 -247z m-6237 -518 c-33 -292 -61 -531 -63 -533 -4 -4 -1040 -182
-1063 -182 -13 0 -149 56 -303 125 -153 69 -282 125 -287 125 -17 0 -225 406
-281 547 -19 48 -19 52 -3 57 9 3 113 28 231 56 l214 50 181 128 c99 71 187
132 194 136 8 5 47 -24 114 -85 l100 -93 302 -10 301 -9 210 111 c115 61 210
110 211 109 2 -1 -24 -241 -58 -532z m4971 364 l95 -52 180 6 180 5 117 -81
117 -82 99 -200 100 -200 -38 -449 -38 -449 -28 -31 c-154 -169 -360 -373
-368 -364 -3 2 -61 180 -130 395 l-124 391 -264 354 -264 353 -190 170 -190
170 196 5 196 5 110 52 c61 28 119 52 129 52 11 1 62 -22 115 -50z m1410 -211
c80 -50 148 -93 150 -94 7 -6 -199 -412 -267 -526 -118 -197 -289 -441 -416
-593 l-25 -30 -1 30 c0 53 60 759 68 795 7 31 327 510 340 510 3 0 71 -41 151
-92z m-2891 -687 l318 -258 144 -43 c80 -23 147 -44 149 -46 2 -2 -786 -1093
-808 -1116 -6 -7 -690 -42 -697 -35 -2 2 -11 50 -20 108 -8 57 -53 242 -100
410 -46 168 -84 308 -84 312 0 4 62 38 138 76 128 64 149 79 332 236 107 92
198 170 202 174 4 3 26 96 48 206 42 209 49 235 55 235 3 0 148 -116 323 -259z
m-1969 8 l42 -176 62 -50 c34 -28 134 -108 222 -179 l160 -129 170 -68 c94
-38 173 -72 177 -75 4 -4 44 -137 88 -297 69 -245 88 -328 121 -540 l39 -250
-83 -80 c-46 -44 -154 -147 -240 -228 l-156 -148 -158 11 c-173 12 -253 21
-414 46 l-107 16 8 32 c5 17 34 244 66 504 l57 472 -20 23 c-143 156 -543 610
-543 615 0 4 46 31 103 60 l103 53 124 290 c68 159 126 286 130 282 4 -5 26
-87 49 -184z m-2938 -102 l275 -124 450 78 c247 43 459 79 471 79 17 0 72 -60
230 -251 l208 -251 127 -372 126 -373 -77 -237 -77 -236 -90 44 c-621 302
-1214 791 -1643 1356 -103 135 -289 410 -278 410 2 0 127 -56 278 -123z m5731
-316 l156 -48 284 -226 c156 -123 290 -233 299 -243 38 -45 150 -234 144 -244
-11 -19 -269 -207 -401 -293 -730 -477 -1628 -747 -2489 -747 l-140 0 135 127
c74 70 179 170 233 223 l98 95 -17 112 c-10 62 -15 115 -13 118 3 2 160 11
349 20 189 9 347 18 351 21 4 2 193 259 419 569 226 311 417 565 423 565 7 0
83 -22 169 -49z m-3050 -417 c153 -170 277 -314 278 -319 0 -23 -120 -978
-124 -982 -6 -7 -181 30 -326 68 -218 58 -499 156 -692 242 l-56 25 78 241 78
241 -78 235 c-56 168 -75 237 -67 242 51 33 614 322 622 320 6 -2 135 -143
287 -313z"/>
<path d="M9366 4209 c-34 -40 -33 -64 3 -100 29 -29 64 -37 90 -20 10 6 21 1
37 -19 29 -34 29 -37 2 -61 -29 -24 -35 -23 -41 1 -6 23 -29 26 -46 6 -15 -17
12 -48 34 -40 19 8 19 0 -1 -37 -11 -23 -20 -29 -35 -24 -11 4 -19 2 -19 -5 0
-7 8 -14 18 -16 13 -4 17 -17 18 -58 1 -52 0 -54 -35 -72 -20 -10 -47 -18 -61
-19 -18 0 -25 -5 -25 -20 0 -27 41 -33 49 -7 5 16 74 58 81 50 1 -2 8 -14 15
-27 12 -23 10 -27 -25 -57 -31 -26 -43 -30 -65 -24 -37 11 -88 -13 -101 -46
-12 -33 4 -79 32 -94 70 -38 155 32 119 99 -7 15 -2 24 31 50 l40 32 29 -24
c16 -14 35 -27 42 -30 10 -3 8 -9 -6 -25 -10 -12 -21 -21 -25 -20 -21 2 -31
-4 -31 -21 0 -10 6 -21 13 -23 21 -8 37 3 37 25 0 29 27 56 51 50 24 -7 24 -6
-7 -80 -24 -57 -30 -63 -56 -63 -36 0 -78 -40 -78 -74 0 -41 41 -80 84 -80 68
0 105 75 61 124 -17 19 -17 22 11 90 37 89 58 94 68 15 3 -31 2 -64 -3 -74 -7
-12 -6 -22 1 -29 30 -30 63 5 35 36 -9 10 -19 44 -23 75 -7 57 -7 57 19 57 22
0 31 -9 52 -50 14 -27 30 -50 35 -50 14 0 13 5 -14 59 l-25 48 44 31 c45 32
54 30 68 -11 10 -26 52 -19 52 8 0 14 -8 21 -28 23 -33 4 -43 22 -27 52 10 19
17 21 48 16 90 -16 92 -17 92 -41 0 -30 44 -65 82 -65 54 0 92 61 72 115 -8
19 -55 45 -83 45 -11 0 -32 -10 -47 -23 -25 -21 -32 -23 -83 -15 -30 5 -56 10
-58 11 -1 2 0 12 3 24 4 15 16 22 42 26 21 2 43 0 49 -6 18 -14 43 -1 43 23 0
24 -17 25 -56 5 -48 -25 -71 -20 -77 18 -4 17 -9 41 -12 53 -6 18 0 22 45 32
46 11 53 10 72 -8 31 -28 83 -26 113 5 34 33 32 70 -5 107 -26 25 -36 29 -62
24 -41 -8 -65 -31 -73 -67 -5 -22 -14 -31 -43 -39 -54 -14 -63 -13 -94 16 -33
33 -24 58 28 80 24 10 34 20 32 32 -5 24 -42 22 -46 -3 -2 -11 -15 -32 -29
-47 -25 -26 -27 -26 -54 -12 -33 17 -34 22 -14 88 8 27 15 58 15 68 0 38 -18
7 -36 -62 l-18 -70 -42 0 c-39 0 -42 2 -48 32 -3 17 -2 36 4 42 15 15 12 33
-7 40 -9 4 -23 0 -32 -9 -15 -15 -14 -17 1 -29 10 -7 19 -28 20 -46 3 -28 -1
-34 -26 -43 -27 -9 -32 -7 -57 23 -23 27 -26 37 -18 52 24 45 -21 108 -77 108
-24 0 -39 -8 -58 -31z"/>
</g>
</svg>
